<svg xmlns="http://www.w3.org/2000/svg">
	<symbol
		id="hamburger"
		strokeWidth="1.5"
		stroke="currentColor"
		fill="currentColor"
		viewBox="0 0 24 24">
		<path
			strokeLinecap="round"
			strokeLinejoin="round"
			d="M3.75 6.75h16.5M3.75 12h16.5m-16.5 5.25h16.5" />
	</symbol>

	<symbol
		id="chevron-down"
		strokeWidth="1.5"
		stroke="currentColor"
		viewBox="0 0 24 24">
		<path
			stroke-linecap="round"
			stroke-linejoin="round"
			d="m19.5 8.25-7.5 7.5-7.5-7.5" />
	</symbol>

	<symbol
		id="delete"
		strokeWidth="1.5"
		stroke="currentColor"
		viewBox="0 0 24 24">
		<path
			stroke-linecap="round"
			stroke-linejoin="round"
			d="m14.74 9-.346 9m-4.788 0L9.26 9m9.968-3.21c.342.052.682.107 1.022.166m-1.022-.165L18.16 19.673a2.25 2.25 0 0 1-2.244 2.077H8.084a2.25 2.25 0 0 1-2.244-2.077L4.772 5.79m14.456 0a48.108 48.108 0 0 0-3.478-.397m-12 .562c.34-.059.68-.114 1.022-.165m0 0a48.11 48.11 0 0 1 3.478-.397m7.5 0v-.916c0-1.18-.91-2.164-2.09-2.201a51.964 51.964 0 0 0-3.32 0c-1.18.037-2.09 1.022-2.09 2.201v.916m7.5 0a48.667 48.667 0 0 0-7.5 0" />
	</symbol>

	<symbol
		id="backspace"
		strokeWidth="1.5"
		stroke="currentColor"
		viewBox="0 0 24 24">
		<path
			stroke-linecap="round"
			stroke-linejoin="round"
			d="M12 9.75 14.25 12m0 0 2.25 2.25M14.25 12l2.25-2.25M14.25 12 12 14.25m-2.58 4.92-6.374-6.375a1.125 1.125 0 0 1 0-1.59L9.42 4.83c.21-.211.497-.33.795-.33H19.5a2.25 2.25 0 0 1 2.25 2.25v10.5a2.25 2.25 0 0 1-2.25 2.25h-9.284c-.298 0-.585-.119-.795-.33Z" />
	</symbol>

	<symbol
		id="history"
		strokeWidth="1.5"
		stroke="currentColor"
		viewBox="0 0 24 24">
		<path
			d="M12 8V12L14.5 14.5"
			stroke-width="1.5"
			stroke-linecap="round"
			stroke-linejoin="round" />
		<path
			d="M5.60423 5.60423L5.0739 5.0739V5.0739L5.60423 5.60423ZM4.33785 6.87061L3.58786 6.87438C3.58992 7.28564 3.92281 7.61853 4.33408 7.6206L4.33785 6.87061ZM6.87963 7.63339C7.29384 7.63547 7.63131 7.30138 7.63339 6.88717C7.63547 6.47296 7.30138 6.13549 6.88717 6.13341L6.87963 7.63339ZM5.07505 4.32129C5.07296 3.90708 4.7355 3.57298 4.32129 3.57506C3.90708 3.57715 3.57298 3.91462 3.57507 4.32882L5.07505 4.32129ZM3.75 12C3.75 11.5858 3.41421 11.25 3 11.25C2.58579 11.25 2.25 11.5858 2.25 12H3.75ZM16.8755 20.4452C17.2341 20.2378 17.3566 19.779 17.1492 19.4204C16.9418 19.0619 16.483 18.9393 16.1245 19.1468L16.8755 20.4452ZM19.1468 16.1245C18.9393 16.483 19.0619 16.9418 19.4204 17.1492C19.779 17.3566 20.2378 17.2341 20.4452 16.8755L19.1468 16.1245ZM5.14033 5.07126C4.84598 5.36269 4.84361 5.83756 5.13505 6.13191C5.42648 6.42626 5.90134 6.42862 6.19569 6.13719L5.14033 5.07126ZM18.8623 5.13786C15.0421 1.31766 8.86882 1.27898 5.0739 5.0739L6.13456 6.13456C9.33366 2.93545 14.5572 2.95404 17.8017 6.19852L18.8623 5.13786ZM5.0739 5.0739L3.80752 6.34028L4.86818 7.40094L6.13456 6.13456L5.0739 5.0739ZM4.33408 7.6206L6.87963 7.63339L6.88717 6.13341L4.34162 6.12062L4.33408 7.6206ZM5.08784 6.86684L5.07505 4.32129L3.57507 4.32882L3.58786 6.87438L5.08784 6.86684ZM12 3.75C16.5563 3.75 20.25 7.44365 20.25 12H21.75C21.75 6.61522 17.3848 2.25 12 2.25V3.75ZM12 20.25C7.44365 20.25 3.75 16.5563 3.75 12H2.25C2.25 17.3848 6.61522 21.75 12 21.75V20.25ZM16.1245 19.1468C14.9118 19.8483 13.5039 20.25 12 20.25V21.75C13.7747 21.75 15.4407 21.2752 16.8755 20.4452L16.1245 19.1468ZM20.25 12C20.25 13.5039 19.8483 14.9118 19.1468 16.1245L20.4452 16.8755C21.2752 15.4407 21.75 13.7747 21.75 12H20.25ZM6.19569 6.13719C7.68707 4.66059 9.73646 3.75 12 3.75V2.25C9.32542 2.25 6.90113 3.32791 5.14033 5.07126L6.19569 6.13719Z" />
	</symbol>
</svg>
