<svg xmlns="http://www.w3.org/2000/svg">
	<symbol
		id="hamburger"
		strokeWidth="1.5"
		stroke="currentColor"
		fill="currentColor"
		viewBox="0 0 24 24">
		<path
			strokeLinecap="round"
			strokeLinejoin="round"
			d="M3.75 6.75h16.5M3.75 12h16.5m-16.5 5.25h16.5" />
	</symbol>

	<symbol
		id="chevron-down"
		strokeWidth="1.5"
		stroke="currentColor"
		viewBox="0 0 24 24">
		<path
			stroke-linecap="round"
			stroke-linejoin="round"
			d="m19.5 8.25-7.5 7.5-7.5-7.5" />
	</symbol>

	<symbol
		id="backspace"
		strokeWidth="1.5"
		stroke="currentColor"
		viewBox="0 0 24 24">
		<path
			stroke-linecap="round"
			stroke-linejoin="round"
			d="M12 9.75 14.25 12m0 0 2.25 2.25M14.25 12l2.25-2.25M14.25 12 12 14.25m-2.58 4.92-6.374-6.375a1.125 1.125 0 0 1 0-1.59L9.42 4.83c.21-.211.497-.33.795-.33H19.5a2.25 2.25 0 0 1 2.25 2.25v10.5a2.25 2.25 0 0 1-2.25 2.25h-9.284c-.298 0-.585-.119-.795-.33Z" />
	</symbol>
</svg>
